# xmcd
#
# Track frame offsets: 
#        150
#        13342
#        27075
#        40580
#        53379
#        66972
#        77435
#        90775
#        103297
#        116830
#        129370
#        143547
#        154707
#        169730
#        184374
#        198245
#        210590
#        221832
#
# Disc length: 3149 seconds
#
# Revision: 0
# Processed by: cddbd v1.5.1PL0 Copyright (c) Steve Scherf et al.
# Submitted via: ExactAudioCopy v0.95a5
#
DISCID=ec0c4b12
DTITLE=Various Artist - Ladies Sing The Blues
DYEAR=1998
DGENRE=Blues
TTITLE0=Ella Fitzgerald - I'm just A Lucky So And So
TTITLE1=Billie Holiday - The Blues Are Brewin'
TTITLE2=Mahalia Jackson - Move On Up A Little Bit Higher
TTITLE3=Dinah Washington - Joy Juice
TTITLE4=Julia Lee - Show Me Missouri Blues
TTITLE5=Myra Taylor - Tell Your Best Friend Nothing
TTITLE6=Vivian Greene - Red Light
TTITLE7=Helen Humes - Jet Propelled PaPa
TTITLE8=Memphis Minnie - Fashion Plate Daddy
TTITLE9=Ella Fritzgerald - Cry You Out Of My Head
TTITLE10=Billie Holiday - I Love My Man (Billie's Blues)
TTITLE11=Sister Rosetta Tharpe - Trouble In Mind
TTITLE12=Dinah Washington - Blow Top Blues
TTITLE13=Ella Johnson - Since I Feel For You
TTITLE14=Julia Lee - Dream Lucky Blues
TTITLE15=Myra Taylor - Booted
TTITLE16=Sarah Vaughan - Tenderly
TTITLE17=Helen Humes - Blue And Sentimental
EXTD=
EXTT0=
EXTT1=
EXTT2=
EXTT3=
EXTT4=
EXTT5=
EXTT6=
EXTT7=
EXTT8=
EXTT9=
EXTT10=
EXTT11=
EXTT12=
EXTT13=
EXTT14=
EXTT15=
EXTT16=
EXTT17=
PLAYORDER=
